<?xml version="1.0" encoding="utf-8" standalone="no"?>
<!DOCTYPE svg PUBLIC "-//W3C//DTD SVG 1.1//EN"
  "http://www.w3.org/Graphics/SVG/1.1/DTD/svg11.dtd">
<svg xmlns:xlink="http://www.w3.org/1999/xlink" width="720pt" height="432pt" viewBox="0 0 720 432" xmlns="http://www.w3.org/2000/svg" version="1.1">
 <metadata>
  <rdf:RDF xmlns:dc="http://purl.org/dc/elements/1.1/" xmlns:cc="http://creativecommons.org/ns#" xmlns:rdf="http://www.w3.org/1999/02/22-rdf-syntax-ns#">
   <cc:Work>
    <dc:type rdf:resource="http://purl.org/dc/dcmitype/StillImage"/>
    <dc:date>2023-02-20T22:58:32.153795</dc:date>
    <dc:format>image/svg+xml</dc:format>
    <dc:creator>
     <cc:Agent>
      <dc:title>Matplotlib v3.5.2, https://matplotlib.org/</dc:title>
     </cc:Agent>
    </dc:creator>
   </cc:Work>
  </rdf:RDF>
 </metadata>
 <defs>
  <style type="text/css">*{stroke-linejoin: round; stroke-linecap: butt}</style>
 </defs>
 <g id="figure_1">
  <g id="patch_1">
   <path d="M 0 432 
L 720 432 
L 720 0 
L 0 0 
z
" style="fill: #ffffff"/>
  </g>
  <g id="axes_1">
   <g id="patch_2">
    <path d="M 535.32 218.16 
C 535.32 196.319058 531.017811 174.690491 522.659644 154.512092 
C 514.301477 134.333692 502.049878 115.997879 486.606 100.554 
C 471.162121 85.110122 452.826308 72.858523 432.647908 64.500356 
C 412.469509 56.142189 390.840942 51.84 369 51.84 
C 347.159058 51.84 325.530491 56.142189 305.352092 64.500356 
C 285.173692 72.858523 266.837879 85.110122 251.394 100.554 
C 235.950122 115.997879 223.698523 134.333692 215.340356 154.512092 
C 206.982189 174.690491 202.68 196.319058 202.68 218.16 
C 202.68 240.000942 206.982189 261.629509 215.340356 281.807908 
C 223.698523 301.986308 235.950122 320.322121 251.394 335.766 
C 266.837879 351.209878 285.173692 363.461477 305.352092 371.819644 
C 325.530491 380.177811 347.159058 384.48 369 384.48 
C 390.840942 384.48 412.469509 380.177811 432.647908 371.819644 
C 452.826308 363.461477 471.162121 351.209878 486.606 335.766 
C 502.049878 320.322121 514.301477 301.986308 522.659644 281.807908 
C 531.017811 261.629509 535.32 240.000942 535.32 218.16 
M 369 218.16 
C 369 218.16 369 218.16 369 218.16 
C 369 218.16 369 218.16 369 218.16 
C 369 218.16 369 218.16 369 218.16 
C 369 218.16 369 218.16 369 218.16 
C 369 218.16 369 218.16 369 218.16 
C 369 218.16 369 218.16 369 218.16 
C 369 218.16 369 218.16 369 218.16 
C 369 218.16 369 218.16 369 218.16 
C 369 218.16 369 218.16 369 218.16 
C 369 218.16 369 218.16 369 218.16 
C 369 218.16 369 218.16 369 218.16 
C 369 218.16 369 218.16 369 218.16 
C 369 218.16 369 218.16 369 218.16 
C 369 218.16 369 218.16 369 218.16 
C 369 218.16 369 218.16 369 218.16 
C 369 218.16 369 218.16 369 218.16 
M 535.32 218.16 
z
" style="fill: #ffffff"/>
   </g>
   <g id="patch_3">
    <path d="M 526.788417 218.16 
L 369 133.761544 
L 255.24556 218.16 
L 369 298.888958 
z
" clip-path="url(#p831ad4be7b)" style="fill: #1f77b4; opacity: 0.25"/>
   </g>
   <g id="patch_4">
    <path d="M 455.233205 218.16 
L 369 153.943784 
L 288.271042 218.16 
L 369 297.054208 
z
" clip-path="url(#p831ad4be7b)" style="fill: #ff7f0e; opacity: 0.25"/>
   </g>
   <g id="patch_5">
    <path d="M 530.457915 218.16 
L 369 109.909807 
L 231.393822 218.16 
L 369 333.749189 
z
" clip-path="url(#p831ad4be7b)" style="fill: #2ca02c; opacity: 0.25"/>
   </g>
   <g id="matplotlib.axis_1">
    <g id="xtick_1">
     <g id="line2d_1">
      <path d="M 369 218.16 
L 535.32 218.16 
" clip-path="url(#p831ad4be7b)" style="fill: none; stroke: #b0b0b0; stroke-width: 0.8; stroke-linecap: square"/>
     </g>
     <g id="text_1">
      <!-- Margale index -->
      <g transform="translate(516.82 220.9725)scale(0.1 -0.1)">
       <defs>
        <path id="SimHei-4d" d="M 2925 125 
L 2425 125 
L 2425 3175 
L 2375 3175 
L 1775 125 
L 1375 125 
L 775 3175 
L 725 3175 
L 725 125 
L 225 125 
L 225 4400 
L 1000 4400 
L 1550 1575 
L 1600 1575 
L 2150 4400 
L 2925 4400 
L 2925 125 
z
" transform="scale(0.015625)"/>
        <path id="SimHei-61" d="M 2875 125 
L 2275 125 
Q 2225 175 2200 262 
Q 2175 350 2175 475 
Q 2000 275 1750 175 
Q 1500 75 1225 75 
Q 825 75 550 275 
Q 275 475 275 850 
Q 275 1225 525 1450 
Q 775 1675 1300 1750 
Q 1650 1800 1912 1875 
Q 2175 1950 2175 2075 
Q 2175 2225 2062 2375 
Q 1950 2525 1575 2525 
Q 1275 2525 1137 2412 
Q 1000 2300 950 2100 
L 400 2100 
Q 450 2500 762 2737 
Q 1075 2975 1575 2975 
Q 2125 2975 2400 2725 
Q 2675 2475 2675 2025 
L 2675 650 
Q 2675 500 2725 375 
Q 2775 250 2875 125 
z
M 2175 1050 
L 2175 1550 
Q 2025 1500 1887 1462 
Q 1750 1425 1425 1375 
Q 1050 1325 937 1200 
Q 825 1075 825 900 
Q 825 750 937 637 
Q 1050 525 1275 525 
Q 1500 525 1762 650 
Q 2025 775 2175 1050 
z
" transform="scale(0.015625)"/>
        <path id="SimHei-72" d="M 2500 2425 
Q 2025 2500 1700 2287 
Q 1375 2075 1150 1550 
L 1150 125 
L 650 125 
L 650 2925 
L 1150 2925 
L 1150 2200 
Q 1375 2600 1712 2787 
Q 2050 2975 2500 2975 
L 2500 2425 
z
" transform="scale(0.015625)"/>
        <path id="SimHei-67" d="M 2975 2500 
Q 2800 2550 2637 2562 
Q 2475 2575 2300 2525 
Q 2375 2450 2425 2337 
Q 2475 2225 2475 2000 
Q 2475 1575 2187 1300 
Q 1900 1025 1475 1025 
Q 1375 1025 1212 1062 
Q 1050 1100 950 1150 
Q 875 1100 850 1050 
Q 825 1000 825 925 
Q 825 800 1000 737 
Q 1175 675 1625 675 
Q 2350 675 2612 475 
Q 2875 275 2875 -25 
Q 2875 -425 2487 -612 
Q 2100 -800 1575 -800 
Q 900 -800 575 -625 
Q 250 -450 250 -150 
Q 250 0 375 150 
Q 500 300 700 400 
Q 550 475 462 587 
Q 375 700 375 875 
Q 375 1025 487 1137 
Q 600 1250 750 1325 
Q 625 1450 550 1625 
Q 475 1800 475 2000 
Q 475 2425 762 2700 
Q 1050 2975 1475 2975 
Q 1700 2975 1862 2912 
Q 2025 2850 2150 2725 
Q 2350 2875 2550 2937 
Q 2750 3000 2975 2975 
L 2975 2500 
z
M 1975 2000 
Q 1975 2250 1850 2400 
Q 1725 2550 1475 2550 
Q 1225 2550 1100 2400 
Q 975 2250 975 2000 
Q 975 1750 1100 1600 
Q 1225 1450 1475 1450 
Q 1725 1450 1850 1600 
Q 1975 1750 1975 2000 
z
M 2400 -75 
Q 2400 25 2287 125 
Q 2175 225 1725 225 
Q 1625 225 1450 237 
Q 1275 250 1050 275 
Q 850 200 775 100 
Q 700 0 700 -100 
Q 700 -250 900 -350 
Q 1100 -450 1600 -450 
Q 2025 -450 2212 -337 
Q 2400 -225 2400 -75 
z
" transform="scale(0.015625)"/>
        <path id="SimHei-6c" d="M 1825 125 
L 1325 125 
L 1325 4400 
L 1825 4400 
L 1825 125 
z
" transform="scale(0.015625)"/>
        <path id="SimHei-65" d="M 2850 1075 
Q 2800 625 2450 350 
Q 2100 75 1625 75 
Q 1025 75 637 462 
Q 250 850 250 1525 
Q 250 2200 637 2587 
Q 1025 2975 1625 2975 
Q 2150 2975 2487 2637 
Q 2825 2300 2825 1525 
L 800 1525 
Q 800 975 1037 750 
Q 1275 525 1625 525 
Q 1900 525 2075 662 
Q 2250 800 2300 1075 
L 2850 1075 
z
M 2250 1925 
Q 2200 2275 2025 2412 
Q 1850 2550 1575 2550 
Q 1325 2550 1125 2412 
Q 925 2275 825 1925 
L 2250 1925 
z
" transform="scale(0.015625)"/>
        <path id="SimHei-20" transform="scale(0.015625)"/>
        <path id="SimHei-69" d="M 1800 3725 
L 1300 3725 
L 1300 4375 
L 1800 4375 
L 1800 3725 
z
M 1800 125 
L 1300 125 
L 1300 2925 
L 1800 2925 
L 1800 125 
z
" transform="scale(0.015625)"/>
        <path id="SimHei-6e" d="M 2800 125 
L 2300 125 
L 2300 1925 
Q 2300 2225 2150 2400 
Q 2000 2575 1750 2575 
Q 1425 2575 1137 2237 
Q 850 1900 850 1400 
L 850 125 
L 350 125 
L 350 2925 
L 850 2925 
L 850 2400 
Q 1050 2675 1287 2825 
Q 1525 2975 1900 2975 
Q 2350 2975 2575 2725 
Q 2800 2475 2800 2100 
L 2800 125 
z
" transform="scale(0.015625)"/>
        <path id="SimHei-64" d="M 2750 125 
L 2250 125 
L 2250 500 
Q 2100 275 1900 175 
Q 1700 75 1425 75 
Q 925 75 575 437 
Q 225 800 225 1525 
Q 225 2250 575 2625 
Q 925 3000 1425 3000 
Q 1700 3000 1900 2887 
Q 2100 2775 2250 2550 
L 2250 4400 
L 2750 4400 
L 2750 125 
z
M 2250 1525 
Q 2250 2000 2037 2275 
Q 1825 2550 1525 2550 
Q 1150 2550 962 2275 
Q 775 2000 775 1525 
Q 775 1050 962 787 
Q 1150 525 1525 525 
Q 1825 525 2037 787 
Q 2250 1050 2250 1525 
z
" transform="scale(0.015625)"/>
        <path id="SimHei-78" d="M 2875 125 
L 2275 125 
L 1550 1200 
L 825 125 
L 225 125 
L 1250 1550 
L 300 2925 
L 900 2925 
L 1550 1875 
L 2200 2925 
L 2800 2925 
L 1850 1550 
L 2875 125 
z
" transform="scale(0.015625)"/>
       </defs>
       <use xlink:href="#SimHei-4d"/>
       <use xlink:href="#SimHei-61" x="50"/>
       <use xlink:href="#SimHei-72" x="100"/>
       <use xlink:href="#SimHei-67" x="150"/>
       <use xlink:href="#SimHei-61" x="200"/>
       <use xlink:href="#SimHei-6c" x="250"/>
       <use xlink:href="#SimHei-65" x="300"/>
       <use xlink:href="#SimHei-20" x="350"/>
       <use xlink:href="#SimHei-69" x="400"/>
       <use xlink:href="#SimHei-6e" x="450"/>
       <use xlink:href="#SimHei-64" x="500"/>
       <use xlink:href="#SimHei-65" x="550"/>
       <use xlink:href="#SimHei-78" x="600"/>
      </g>
     </g>
    </g>
    <g id="xtick_2">
     <g id="line2d_2">
      <path d="M 369 218.16 
L 369 51.84 
" clip-path="url(#p831ad4be7b)" style="fill: none; stroke: #b0b0b0; stroke-width: 0.8; stroke-linecap: square"/>
     </g>
     <g id="text_2">
      <!-- Simpson index  -->
      <g transform="translate(334 40.691563)scale(0.1 -0.1)">
       <defs>
        <path id="SimHei-53" d="M 2900 1325 
Q 2900 750 2537 412 
Q 2175 75 1550 75 
Q 925 75 575 425 
Q 225 775 225 1300 
L 225 1475 
L 800 1475 
L 800 1325 
Q 800 950 1025 750 
Q 1250 550 1550 550 
Q 1950 550 2137 762 
Q 2325 975 2325 1275 
Q 2325 1525 2100 1737 
Q 1875 1950 1450 2125 
Q 850 2350 587 2625 
Q 325 2900 325 3275 
Q 325 3800 687 4125 
Q 1050 4450 1550 4450 
Q 2200 4450 2487 4062 
Q 2775 3675 2775 3225 
L 2200 3225 
Q 2225 3500 2050 3725 
Q 1875 3950 1550 3950 
Q 1250 3950 1075 3787 
Q 900 3625 900 3350 
Q 900 3125 1037 2962 
Q 1175 2800 1750 2575 
Q 2300 2350 2600 2037 
Q 2900 1725 2900 1325 
z
" transform="scale(0.015625)"/>
        <path id="SimHei-6d" d="M 3050 125 
L 2550 125 
L 2550 2150 
Q 2550 2300 2500 2400 
Q 2450 2500 2300 2500 
Q 2125 2500 1975 2312 
Q 1825 2125 1825 1825 
L 1825 125 
L 1325 125 
L 1325 2150 
Q 1325 2300 1275 2400 
Q 1225 2500 1075 2500 
Q 900 2500 750 2312 
Q 600 2125 600 1825 
L 600 125 
L 100 125 
L 100 2925 
L 600 2925 
L 600 2550 
Q 725 2750 900 2862 
Q 1075 2975 1275 2975 
Q 1475 2975 1612 2862 
Q 1750 2750 1800 2550 
Q 1925 2750 2087 2862 
Q 2250 2975 2450 2975 
Q 2750 2975 2900 2812 
Q 3050 2650 3050 2350 
L 3050 125 
z
" transform="scale(0.015625)"/>
        <path id="SimHei-70" d="M 2825 1525 
Q 2825 800 2475 425 
Q 2125 50 1625 50 
Q 1350 50 1150 162 
Q 950 275 800 500 
L 800 -800 
L 300 -800 
L 300 2925 
L 800 2925 
L 800 2550 
Q 950 2775 1150 2875 
Q 1350 2975 1625 2975 
Q 2125 2975 2475 2612 
Q 2825 2250 2825 1525 
z
M 2275 1525 
Q 2275 2000 2087 2262 
Q 1900 2525 1525 2525 
Q 1225 2525 1012 2262 
Q 800 2000 800 1525 
Q 800 1050 1012 775 
Q 1225 500 1525 500 
Q 1900 500 2087 775 
Q 2275 1050 2275 1525 
z
" transform="scale(0.015625)"/>
        <path id="SimHei-73" d="M 2750 900 
Q 2750 500 2437 287 
Q 2125 75 1650 75 
Q 1050 75 725 312 
Q 400 550 400 1000 
L 900 1000 
Q 900 700 1112 600 
Q 1325 500 1625 500 
Q 1925 500 2075 612 
Q 2225 725 2225 900 
Q 2225 1025 2100 1150 
Q 1975 1275 1475 1350 
Q 900 1425 687 1637 
Q 475 1850 475 2200 
Q 475 2500 762 2737 
Q 1050 2975 1600 2975 
Q 2100 2975 2387 2750 
Q 2675 2525 2675 2150 
L 2175 2150 
Q 2175 2375 2012 2462 
Q 1850 2550 1600 2550 
Q 1275 2550 1137 2437 
Q 1000 2325 1000 2175 
Q 1000 2000 1125 1900 
Q 1250 1800 1650 1750 
Q 2300 1650 2525 1437 
Q 2750 1225 2750 900 
z
" transform="scale(0.015625)"/>
        <path id="SimHei-6f" d="M 2925 1525 
Q 2925 875 2525 475 
Q 2125 75 1575 75 
Q 1025 75 625 475 
Q 225 875 225 1525 
Q 225 2175 625 2575 
Q 1025 2975 1575 2975 
Q 2125 2975 2525 2575 
Q 2925 2175 2925 1525 
z
M 2375 1525 
Q 2375 2025 2125 2275 
Q 1875 2525 1575 2525 
Q 1275 2525 1025 2275 
Q 775 2025 775 1525 
Q 775 1025 1025 775 
Q 1275 525 1575 525 
Q 1875 525 2125 775 
Q 2375 1025 2375 1525 
z
" transform="scale(0.015625)"/>
       </defs>
       <use xlink:href="#SimHei-53"/>
       <use xlink:href="#SimHei-69" x="50"/>
       <use xlink:href="#SimHei-6d" x="100"/>
       <use xlink:href="#SimHei-70" x="150"/>
       <use xlink:href="#SimHei-73" x="200"/>
       <use xlink:href="#SimHei-6f" x="250"/>
       <use xlink:href="#SimHei-6e" x="300"/>
       <use xlink:href="#SimHei-20" x="350"/>
       <use xlink:href="#SimHei-69" x="400"/>
       <use xlink:href="#SimHei-6e" x="450"/>
       <use xlink:href="#SimHei-64" x="500"/>
       <use xlink:href="#SimHei-65" x="550"/>
       <use xlink:href="#SimHei-78" x="600"/>
       <use xlink:href="#SimHei-20" x="650"/>
      </g>
     </g>
    </g>
    <g id="xtick_3">
     <g id="line2d_3">
      <path d="M 369 218.16 
L 202.68 218.16 
" clip-path="url(#p831ad4be7b)" style="fill: none; stroke: #b0b0b0; stroke-width: 0.8; stroke-linecap: square"/>
     </g>
     <g id="text_3">
      <!-- Shannon-Wiener index -->
      <g transform="translate(138.68 220.9725)scale(0.1 -0.1)">
       <defs>
        <path id="SimHei-68" d="M 2800 125 
L 2300 125 
L 2300 1925 
Q 2300 2225 2150 2400 
Q 2000 2575 1750 2575 
Q 1425 2575 1137 2237 
Q 850 1900 850 1400 
L 850 125 
L 350 125 
L 350 4400 
L 850 4400 
L 850 2400 
Q 1050 2675 1287 2825 
Q 1525 2975 1900 2975 
Q 2350 2975 2575 2725 
Q 2800 2475 2800 2100 
L 2800 125 
z
" transform="scale(0.015625)"/>
        <path id="SimHei-2d" d="M 2975 2125 
L 125 2125 
L 125 2525 
L 2975 2525 
L 2975 2125 
z
" transform="scale(0.015625)"/>
        <path id="SimHei-57" d="M 3075 4400 
L 2525 75 
L 2025 75 
L 1575 3275 
L 1525 3275 
L 1075 75 
L 575 75 
L 25 4400 
L 575 4400 
L 850 1675 
L 900 1675 
L 1275 4400 
L 1825 4400 
L 2200 1675 
L 2250 1675 
L 2525 4400 
L 3075 4400 
z
" transform="scale(0.015625)"/>
       </defs>
       <use xlink:href="#SimHei-53"/>
       <use xlink:href="#SimHei-68" x="50"/>
       <use xlink:href="#SimHei-61" x="100"/>
       <use xlink:href="#SimHei-6e" x="150"/>
       <use xlink:href="#SimHei-6e" x="200"/>
       <use xlink:href="#SimHei-6f" x="250"/>
       <use xlink:href="#SimHei-6e" x="300"/>
       <use xlink:href="#SimHei-2d" x="350"/>
       <use xlink:href="#SimHei-57" x="400"/>
       <use xlink:href="#SimHei-69" x="450"/>
       <use xlink:href="#SimHei-65" x="500"/>
       <use xlink:href="#SimHei-6e" x="550"/>
       <use xlink:href="#SimHei-65" x="600"/>
       <use xlink:href="#SimHei-72" x="650"/>
       <use xlink:href="#SimHei-20" x="700"/>
       <use xlink:href="#SimHei-69" x="750"/>
       <use xlink:href="#SimHei-6e" x="800"/>
       <use xlink:href="#SimHei-64" x="850"/>
       <use xlink:href="#SimHei-65" x="900"/>
       <use xlink:href="#SimHei-78" x="950"/>
      </g>
     </g>
    </g>
    <g id="xtick_4">
     <g id="line2d_4">
      <path d="M 369 218.16 
L 369 384.48 
" clip-path="url(#p831ad4be7b)" style="fill: none; stroke: #b0b0b0; stroke-width: 0.8; stroke-linecap: square"/>
     </g>
     <g id="text_4">
      <!-- Pielou index -->
      <g transform="translate(339 401.2925)scale(0.1 -0.1)">
       <defs>
        <path id="SimHei-50" d="M 2950 3100 
Q 2950 2500 2600 2150 
Q 2250 1800 1625 1800 
L 900 1800 
L 900 125 
L 325 125 
L 325 4400 
L 1625 4400 
Q 2250 4400 2600 4050 
Q 2950 3700 2950 3100 
z
M 2375 3100 
Q 2375 3575 2150 3750 
Q 1925 3925 1475 3925 
L 900 3925 
L 900 2275 
L 1475 2275 
Q 1925 2275 2150 2450 
Q 2375 2625 2375 3100 
z
" transform="scale(0.015625)"/>
        <path id="SimHei-75" d="M 2800 125 
L 2300 125 
L 2300 650 
Q 2100 375 1862 225 
Q 1625 75 1250 75 
Q 800 75 575 325 
Q 350 575 350 950 
L 350 2925 
L 850 2925 
L 850 1125 
Q 850 825 1000 650 
Q 1150 475 1400 475 
Q 1725 475 2012 812 
Q 2300 1150 2300 1650 
L 2300 2925 
L 2800 2925 
L 2800 125 
z
" transform="scale(0.015625)"/>
       </defs>
       <use xlink:href="#SimHei-50"/>
       <use xlink:href="#SimHei-69" x="50"/>
       <use xlink:href="#SimHei-65" x="100"/>
       <use xlink:href="#SimHei-6c" x="150"/>
       <use xlink:href="#SimHei-6f" x="200"/>
       <use xlink:href="#SimHei-75" x="250"/>
       <use xlink:href="#SimHei-20" x="300"/>
       <use xlink:href="#SimHei-69" x="350"/>
       <use xlink:href="#SimHei-6e" x="400"/>
       <use xlink:href="#SimHei-64" x="450"/>
       <use xlink:href="#SimHei-65" x="500"/>
       <use xlink:href="#SimHei-78" x="550"/>
      </g>
     </g>
    </g>
   </g>
   <g id="matplotlib.axis_2">
    <g id="ytick_1">
     <g id="line2d_5">
      <path d="M 405.694981 218.16 
C 405.694981 213.341259 404.745794 208.569375 402.901742 204.117439 
C 401.057689 199.665503 398.354634 195.620095 394.94727 192.21273 
C 391.539905 188.805366 387.494497 186.102311 383.042561 184.258258 
C 378.590625 182.414206 373.818741 181.465019 369 181.465019 
C 364.181259 181.465019 359.409375 182.414206 354.957439 184.258258 
C 350.505503 186.102311 346.460095 188.805366 343.05273 192.21273 
C 339.645366 195.620095 336.942311 199.665503 335.098258 204.117439 
C 333.254206 208.569375 332.305019 213.341259 332.305019 218.16 
C 332.305019 222.978741 333.254206 227.750625 335.098258 232.202561 
C 336.942311 236.654497 339.645366 240.699905 343.05273 244.10727 
C 346.460095 247.514634 350.505503 250.217689 354.957439 252.061742 
C 359.409375 253.905794 364.181259 254.854981 369 254.854981 
C 373.818741 254.854981 378.590625 253.905794 383.042561 252.061742 
C 387.494497 250.217689 391.539905 247.514634 394.94727 244.10727 
C 398.354634 240.699905 401.057689 236.654497 402.901742 232.202561 
C 404.745794 227.750625 405.694981 222.978741 405.694981 218.16 
" clip-path="url(#p831ad4be7b)" style="fill: none; stroke: #b0b0b0; stroke-width: 0.8; stroke-linecap: square"/>
     </g>
     <g id="text_5">
      <!-- 0.2 -->
      <g transform="translate(402.901742 202.867439)scale(0.1 -0.1)">
       <defs>
        <path id="SimHei-30" d="M 225 2537 
Q 250 3200 412 3587 
Q 575 3975 875 4225 
Q 1175 4475 1612 4475 
Q 2050 4475 2375 4112 
Q 2700 3750 2800 3200 
Q 2900 2650 2862 1937 
Q 2825 1225 2612 775 
Q 2400 325 1975 150 
Q 1550 -25 1125 187 
Q 700 400 525 750 
Q 350 1100 275 1487 
Q 200 1875 225 2537 
z
M 750 2687 
Q 675 2000 800 1462 
Q 925 925 1212 700 
Q 1500 475 1800 612 
Q 2100 750 2237 1162 
Q 2375 1575 2375 2062 
Q 2375 2550 2337 2950 
Q 2300 3350 2112 3675 
Q 1925 4000 1612 4012 
Q 1300 4025 1062 3700 
Q 825 3375 750 2687 
z
" transform="scale(0.015625)"/>
        <path id="SimHei-2e" d="M 1075 125 
L 500 125 
L 500 675 
L 1075 675 
L 1075 125 
z
" transform="scale(0.015625)"/>
        <path id="SimHei-32" d="M 300 250 
Q 325 625 650 925 
Q 975 1225 1475 1862 
Q 1975 2500 2125 2850 
Q 2275 3200 2237 3450 
Q 2200 3700 2000 3862 
Q 1800 4025 1537 4000 
Q 1275 3975 1037 3800 
Q 800 3625 675 3275 
L 200 3350 
Q 400 3925 712 4187 
Q 1025 4450 1450 4475 
Q 1700 4500 1900 4462 
Q 2100 4425 2312 4287 
Q 2525 4150 2662 3875 
Q 2800 3600 2762 3212 
Q 2725 2825 2375 2287 
Q 2025 1750 1025 600 
L 2825 600 
L 2825 150 
L 300 150 
L 300 250 
z
" transform="scale(0.015625)"/>
       </defs>
       <use xlink:href="#SimHei-30"/>
       <use xlink:href="#SimHei-2e" x="50"/>
       <use xlink:href="#SimHei-32" x="100"/>
      </g>
     </g>
    </g>
    <g id="ytick_2">
     <g id="line2d_6">
      <path d="M 442.389961 218.16 
C 442.389961 208.522519 440.491588 198.97875 436.803483 190.074878 
C 433.115379 181.171006 427.709268 173.080189 420.894539 166.265461 
C 414.079811 159.450732 405.988994 154.044621 397.085122 150.356517 
C 388.18125 146.668412 378.637481 144.770039 369 144.770039 
C 359.362519 144.770039 349.81875 146.668412 340.914878 150.356517 
C 332.011006 154.044621 323.920189 159.450732 317.105461 166.265461 
C 310.290732 173.080189 304.884621 181.171006 301.196517 190.074878 
C 297.508412 198.97875 295.610039 208.522519 295.610039 218.16 
C 295.610039 227.797481 297.508412 237.34125 301.196517 246.245122 
C 304.884621 255.148994 310.290732 263.239811 317.105461 270.054539 
C 323.920189 276.869268 332.011006 282.275379 340.914878 285.963483 
C 349.81875 289.651588 359.362519 291.549961 369 291.549961 
C 378.637481 291.549961 388.18125 289.651588 397.085122 285.963483 
C 405.988994 282.275379 414.079811 276.869268 420.894539 270.054539 
C 427.709268 263.239811 433.115379 255.148994 436.803483 246.245122 
C 440.491588 237.34125 442.389961 227.797481 442.389961 218.16 
" clip-path="url(#p831ad4be7b)" style="fill: none; stroke: #b0b0b0; stroke-width: 0.8; stroke-linecap: square"/>
     </g>
     <g id="text_6">
      <!-- 0.4 -->
      <g transform="translate(436.803483 188.824878)scale(0.1 -0.1)">
       <defs>
        <path id="SimHei-34" d="M 2000 1100 
L 75 1100 
L 75 1525 
L 2100 4450 
L 2475 4450 
L 2475 1525 
L 3075 1525 
L 3075 1100 
L 2475 1100 
L 2475 150 
L 2000 150 
L 2000 1100 
z
M 2000 1525 
L 2000 3500 
L 600 1525 
L 2000 1525 
z
" transform="scale(0.015625)"/>
       </defs>
       <use xlink:href="#SimHei-30"/>
       <use xlink:href="#SimHei-2e" x="50"/>
       <use xlink:href="#SimHei-34" x="100"/>
      </g>
     </g>
    </g>
    <g id="ytick_3">
     <g id="line2d_7">
      <path d="M 479.084942 218.16 
C 479.084942 203.703778 476.237382 189.388124 470.705225 176.032317 
C 465.173068 162.676509 457.063902 150.540284 446.841809 140.318191 
C 436.619716 130.096098 424.483491 121.986932 411.127683 116.454775 
C 397.771876 110.922618 383.456222 108.075058 369 108.075058 
C 354.543778 108.075058 340.228124 110.922618 326.872317 116.454775 
C 313.516509 121.986932 301.380284 130.096098 291.158191 140.318191 
C 280.936098 150.540284 272.826932 162.676509 267.294775 176.032317 
C 261.762618 189.388124 258.915058 203.703778 258.915058 218.16 
C 258.915058 232.616222 261.762618 246.931876 267.294775 260.287683 
C 272.826932 273.643491 280.936098 285.779716 291.158191 296.001809 
C 301.380284 306.223902 313.516509 314.333068 326.872317 319.865225 
C 340.228124 325.397382 354.543778 328.244942 369 328.244942 
C 383.456222 328.244942 397.771876 325.397382 411.127683 319.865225 
C 424.483491 314.333068 436.619716 306.223902 446.841809 296.001809 
C 457.063902 285.779716 465.173068 273.643491 470.705225 260.287683 
C 476.237382 246.931876 479.084942 232.616222 479.084942 218.16 
" clip-path="url(#p831ad4be7b)" style="fill: none; stroke: #b0b0b0; stroke-width: 0.8; stroke-linecap: square"/>
     </g>
     <g id="text_7">
      <!-- 0.6 -->
      <g transform="translate(470.705225 174.782317)scale(0.1 -0.1)">
       <defs>
        <path id="SimHei-36" d="M 250 1612 
Q 275 1975 387 2225 
Q 500 2475 725 2850 
L 1750 4450 
L 2325 4450 
L 1275 2800 
Q 1950 2975 2350 2750 
Q 2750 2525 2887 2237 
Q 3025 1950 3037 1612 
Q 3050 1275 2937 950 
Q 2825 625 2537 362 
Q 2250 100 1737 75 
Q 1225 50 862 262 
Q 500 475 362 862 
Q 225 1250 250 1612 
z
M 1025 787 
Q 1250 550 1625 525 
Q 2000 500 2250 775 
Q 2500 1050 2500 1575 
Q 2500 2100 2187 2300 
Q 1875 2500 1487 2450 
Q 1100 2400 925 2075 
Q 750 1750 775 1387 
Q 800 1025 1025 787 
z
" transform="scale(0.015625)"/>
       </defs>
       <use xlink:href="#SimHei-30"/>
       <use xlink:href="#SimHei-2e" x="50"/>
       <use xlink:href="#SimHei-36" x="100"/>
      </g>
     </g>
    </g>
    <g id="ytick_4">
     <g id="line2d_8">
      <path d="M 515.779923 218.16 
C 515.779923 198.885037 511.983175 179.797499 504.606966 161.989755 
C 497.230757 144.182012 486.418536 128.000378 472.789079 114.370921 
C 459.159622 100.741464 442.977988 89.929243 425.170245 82.553034 
C 407.362501 75.176825 388.274963 71.380077 369 71.380077 
C 349.725037 71.380077 330.637499 75.176825 312.829755 82.553034 
C 295.022012 89.929243 278.840378 100.741464 265.210921 114.370921 
C 251.581464 128.000378 240.769243 144.182012 233.393034 161.989755 
C 226.016825 179.797499 222.220077 198.885037 222.220077 218.16 
C 222.220077 237.434963 226.016825 256.522501 233.393034 274.330245 
C 240.769243 292.137988 251.581464 308.319622 265.210921 321.949079 
C 278.840378 335.578536 295.022012 346.390757 312.829755 353.766966 
C 330.637499 361.143175 349.725037 364.939923 369 364.939923 
C 388.274963 364.939923 407.362501 361.143175 425.170245 353.766966 
C 442.977988 346.390757 459.159622 335.578536 472.789079 321.949079 
C 486.418536 308.319622 497.230757 292.137988 504.606966 274.330245 
C 511.983175 256.522501 515.779923 237.434963 515.779923 218.16 
" clip-path="url(#p831ad4be7b)" style="fill: none; stroke: #b0b0b0; stroke-width: 0.8; stroke-linecap: square"/>
     </g>
     <g id="text_8">
      <!-- 0.8 -->
      <g transform="translate(504.606966 160.739755)scale(0.1 -0.1)">
       <defs>
        <path id="SimHei-38" d="M 175 1375 
Q 175 1675 325 1962 
Q 475 2250 825 2425 
Q 525 2600 425 2812 
Q 325 3025 312 3300 
Q 300 3575 387 3775 
Q 475 3975 650 4150 
Q 825 4325 1037 4387 
Q 1250 4450 1500 4450 
Q 1750 4450 1950 4400 
Q 2150 4350 2375 4187 
Q 2600 4025 2700 3725 
Q 2800 3425 2687 3025 
Q 2575 2625 2100 2400 
Q 2525 2275 2700 2012 
Q 2875 1750 2875 1375 
Q 2875 1000 2762 775 
Q 2650 550 2512 400 
Q 2375 250 2137 162 
Q 1900 75 1537 75 
Q 1175 75 912 162 
Q 650 250 475 425 
Q 300 600 237 837 
Q 175 1075 175 1375 
z
M 687 1400 
Q 675 1100 787 875 
Q 900 650 1200 587 
Q 1500 525 1825 600 
Q 2150 675 2275 950 
Q 2400 1225 2362 1500 
Q 2325 1775 2050 1962 
Q 1775 2150 1450 2125 
Q 1125 2100 912 1900 
Q 700 1700 687 1400 
z
M 775 3350 
Q 775 3100 950 2875 
Q 1125 2650 1500 2650 
Q 1875 2650 2062 2875 
Q 2250 3100 2237 3412 
Q 2225 3725 2012 3875 
Q 1800 4025 1437 4000 
Q 1075 3975 925 3787 
Q 775 3600 775 3350 
z
" transform="scale(0.015625)"/>
       </defs>
       <use xlink:href="#SimHei-30"/>
       <use xlink:href="#SimHei-2e" x="50"/>
       <use xlink:href="#SimHei-38" x="100"/>
      </g>
     </g>
    </g>
   </g>
   <g id="line2d_9">
    <path d="M 526.788417 218.16 
L 369 133.761544 
L 255.24556 218.16 
L 369 298.888958 
L 526.788417 218.16 
" clip-path="url(#p831ad4be7b)" style="fill: none; stroke: #1f77b4; stroke-opacity: 0.2; stroke-width: 1.5; stroke-linecap: square"/>
    <defs>
     <path id="mec7e61e637" d="M 0 3 
C 0.795609 3 1.55874 2.683901 2.12132 2.12132 
C 2.683901 1.55874 3 0.795609 3 0 
C 3 -0.795609 2.683901 -1.55874 2.12132 -2.12132 
C 1.55874 -2.683901 0.795609 -3 0 -3 
C -0.795609 -3 -1.55874 -2.683901 -2.12132 -2.12132 
C -2.683901 -1.55874 -3 -0.795609 -3 0 
C -3 0.795609 -2.683901 1.55874 -2.12132 2.12132 
C -1.55874 2.683901 -0.795609 3 0 3 
z
" style="stroke: #1f77b4; stroke-opacity: 0.2"/>
    </defs>
    <g clip-path="url(#p831ad4be7b)">
     <use xlink:href="#mec7e61e637" x="526.788417" y="218.16" style="fill: #1f77b4; fill-opacity: 0.2; stroke: #1f77b4; stroke-opacity: 0.2"/>
     <use xlink:href="#mec7e61e637" x="369" y="133.761544" style="fill: #1f77b4; fill-opacity: 0.2; stroke: #1f77b4; stroke-opacity: 0.2"/>
     <use xlink:href="#mec7e61e637" x="255.24556" y="218.16" style="fill: #1f77b4; fill-opacity: 0.2; stroke: #1f77b4; stroke-opacity: 0.2"/>
     <use xlink:href="#mec7e61e637" x="369" y="298.888958" style="fill: #1f77b4; fill-opacity: 0.2; stroke: #1f77b4; stroke-opacity: 0.2"/>
     <use xlink:href="#mec7e61e637" x="526.788417" y="218.16" style="fill: #1f77b4; fill-opacity: 0.2; stroke: #1f77b4; stroke-opacity: 0.2"/>
    </g>
   </g>
   <g id="line2d_10">
    <path d="M 455.233205 218.16 
L 369 153.943784 
L 288.271042 218.16 
L 369 297.054208 
L 455.233205 218.16 
" clip-path="url(#p831ad4be7b)" style="fill: none; stroke: #ff7f0e; stroke-opacity: 0.2; stroke-width: 1.5; stroke-linecap: square"/>
    <defs>
     <path id="mb94655b29a" d="M 0 3 
C 0.795609 3 1.55874 2.683901 2.12132 2.12132 
C 2.683901 1.55874 3 0.795609 3 0 
C 3 -0.795609 2.683901 -1.55874 2.12132 -2.12132 
C 1.55874 -2.683901 0.795609 -3 0 -3 
C -0.795609 -3 -1.55874 -2.683901 -2.12132 -2.12132 
C -2.683901 -1.55874 -3 -0.795609 -3 0 
C -3 0.795609 -2.683901 1.55874 -2.12132 2.12132 
C -1.55874 2.683901 -0.795609 3 0 3 
z
" style="stroke: #ff7f0e; stroke-opacity: 0.2"/>
    </defs>
    <g clip-path="url(#p831ad4be7b)">
     <use xlink:href="#mb94655b29a" x="455.233205" y="218.16" style="fill: #ff7f0e; fill-opacity: 0.2; stroke: #ff7f0e; stroke-opacity: 0.2"/>
     <use xlink:href="#mb94655b29a" x="369" y="153.943784" style="fill: #ff7f0e; fill-opacity: 0.2; stroke: #ff7f0e; stroke-opacity: 0.2"/>
     <use xlink:href="#mb94655b29a" x="288.271042" y="218.16" style="fill: #ff7f0e; fill-opacity: 0.2; stroke: #ff7f0e; stroke-opacity: 0.2"/>
     <use xlink:href="#mb94655b29a" x="369" y="297.054208" style="fill: #ff7f0e; fill-opacity: 0.2; stroke: #ff7f0e; stroke-opacity: 0.2"/>
     <use xlink:href="#mb94655b29a" x="455.233205" y="218.16" style="fill: #ff7f0e; fill-opacity: 0.2; stroke: #ff7f0e; stroke-opacity: 0.2"/>
    </g>
   </g>
   <g id="line2d_11">
    <path d="M 530.457915 218.16 
L 369 109.909807 
L 231.393822 218.16 
L 369 333.749189 
L 530.457915 218.16 
" clip-path="url(#p831ad4be7b)" style="fill: none; stroke: #2ca02c; stroke-opacity: 0.2; stroke-width: 1.5; stroke-linecap: square"/>
    <defs>
     <path id="m1685cedb3c" d="M 0 3 
C 0.795609 3 1.55874 2.683901 2.12132 2.12132 
C 2.683901 1.55874 3 0.795609 3 0 
C 3 -0.795609 2.683901 -1.55874 2.12132 -2.12132 
C 1.55874 -2.683901 0.795609 -3 0 -3 
C -0.795609 -3 -1.55874 -2.683901 -2.12132 -2.12132 
C -2.683901 -1.55874 -3 -0.795609 -3 0 
C -3 0.795609 -2.683901 1.55874 -2.12132 2.12132 
C -1.55874 2.683901 -0.795609 3 0 3 
z
" style="stroke: #2ca02c; stroke-opacity: 0.2"/>
    </defs>
    <g clip-path="url(#p831ad4be7b)">
     <use xlink:href="#m1685cedb3c" x="530.457915" y="218.16" style="fill: #2ca02c; fill-opacity: 0.2; stroke: #2ca02c; stroke-opacity: 0.2"/>
     <use xlink:href="#m1685cedb3c" x="369" y="109.909807" style="fill: #2ca02c; fill-opacity: 0.2; stroke: #2ca02c; stroke-opacity: 0.2"/>
     <use xlink:href="#m1685cedb3c" x="231.393822" y="218.16" style="fill: #2ca02c; fill-opacity: 0.2; stroke: #2ca02c; stroke-opacity: 0.2"/>
     <use xlink:href="#m1685cedb3c" x="369" y="333.749189" style="fill: #2ca02c; fill-opacity: 0.2; stroke: #2ca02c; stroke-opacity: 0.2"/>
     <use xlink:href="#m1685cedb3c" x="530.457915" y="218.16" style="fill: #2ca02c; fill-opacity: 0.2; stroke: #2ca02c; stroke-opacity: 0.2"/>
    </g>
   </g>
   <g id="patch_6">
    <path d="M 535.32 218.16 
C 535.32 196.319058 531.017811 174.690491 522.659644 154.512092 
C 514.301477 134.333692 502.049878 115.997879 486.606 100.554 
C 471.162121 85.110122 452.826308 72.858523 432.647908 64.500356 
C 412.469509 56.142189 390.840942 51.84 369 51.84 
C 347.159058 51.84 325.530491 56.142189 305.352092 64.500356 
C 285.173692 72.858523 266.837879 85.110122 251.394 100.554 
C 235.950122 115.997879 223.698523 134.333692 215.340356 154.512092 
C 206.982189 174.690491 202.68 196.319058 202.68 218.16 
C 202.68 240.000942 206.982189 261.629509 215.340356 281.807908 
C 223.698523 301.986308 235.950122 320.322121 251.394 335.766 
C 266.837879 351.209878 285.173692 363.461477 305.352092 371.819644 
C 325.530491 380.177811 347.159058 384.48 369 384.48 
C 390.840942 384.48 412.469509 380.177811 432.647908 371.819644 
C 452.826308 363.461477 471.162121 351.209878 486.606 335.766 
C 502.049878 320.322121 514.301477 301.986308 522.659644 281.807908 
C 531.017811 261.629509 535.32 240.000942 535.32 218.16 
" style="fill: none; stroke: #000000; stroke-width: 0.8; stroke-linejoin: miter; stroke-linecap: square"/>
   </g>
   <g id="legend_1">
    <g id="patch_7">
     <path d="M 570.584 367.848 
L 638.584 367.848 
Q 640.584 367.848 640.584 365.848 
L 640.584 322.12925 
Q 640.584 320.12925 638.584 320.12925 
L 570.584 320.12925 
Q 568.584 320.12925 568.584 322.12925 
L 568.584 365.848 
Q 568.584 367.848 570.584 367.848 
z
" style="fill: #ffffff; opacity: 0.8; stroke: #cccccc; stroke-linejoin: miter"/>
    </g>
    <g id="line2d_12">
     <path d="M 572.584 328.973 
L 582.584 328.973 
L 592.584 328.973 
" style="fill: none; stroke: #1f77b4; stroke-opacity: 0.2; stroke-width: 1.5; stroke-linecap: square"/>
     <g>
      <use xlink:href="#mec7e61e637" x="582.584" y="328.973" style="fill: #1f77b4; fill-opacity: 0.2; stroke: #1f77b4; stroke-opacity: 0.2"/>
     </g>
    </g>
    <g id="text_9">
     <!-- tpyes1 -->
     <g transform="translate(600.584 332.473)scale(0.12 -0.12)">
      <defs>
       <path id="SimHei-74" d="M 2750 200 
Q 2625 150 2462 112 
Q 2300 75 2025 75 
Q 1575 75 1300 325 
Q 1025 575 1025 1025 
L 1025 2525 
L 175 2525 
L 175 2925 
L 1025 2925 
L 1025 3900 
L 1525 3900 
L 1525 2925 
L 2550 2925 
L 2550 2525 
L 1525 2525 
L 1525 1000 
Q 1525 800 1625 662 
Q 1725 525 2000 525 
Q 2275 525 2450 575 
Q 2625 625 2750 700 
L 2750 200 
z
" transform="scale(0.015625)"/>
       <path id="SimHei-79" d="M 2900 2925 
L 1750 -100 
Q 1650 -450 1450 -625 
Q 1250 -800 950 -800 
Q 825 -800 712 -787 
Q 600 -775 500 -725 
L 500 -225 
Q 600 -275 700 -300 
Q 800 -325 875 -325 
Q 1075 -325 1150 -262 
Q 1225 -200 1300 25 
L 200 2925 
L 750 2925 
L 1550 725 
L 1575 725 
L 2350 2925 
L 2900 2925 
z
" transform="scale(0.015625)"/>
       <path id="SimHei-31" d="M 1400 3600 
Q 1075 3275 575 2975 
L 575 3450 
Q 1200 3875 1600 4450 
L 1900 4450 
L 1900 150 
L 1400 150 
L 1400 3600 
z
" transform="scale(0.015625)"/>
      </defs>
      <use xlink:href="#SimHei-74"/>
      <use xlink:href="#SimHei-70" x="50"/>
      <use xlink:href="#SimHei-79" x="100"/>
      <use xlink:href="#SimHei-65" x="150"/>
      <use xlink:href="#SimHei-73" x="200"/>
      <use xlink:href="#SimHei-31" x="250"/>
     </g>
    </g>
    <g id="line2d_13">
     <path d="M 572.584 343.9105 
L 582.584 343.9105 
L 592.584 343.9105 
" style="fill: none; stroke: #ff7f0e; stroke-opacity: 0.2; stroke-width: 1.5; stroke-linecap: square"/>
     <g>
      <use xlink:href="#mb94655b29a" x="582.584" y="343.9105" style="fill: #ff7f0e; fill-opacity: 0.2; stroke: #ff7f0e; stroke-opacity: 0.2"/>
     </g>
    </g>
    <g id="text_10">
     <!-- types2 -->
     <g transform="translate(600.584 347.4105)scale(0.12 -0.12)">
      <use xlink:href="#SimHei-74"/>
      <use xlink:href="#SimHei-79" x="50"/>
      <use xlink:href="#SimHei-70" x="100"/>
      <use xlink:href="#SimHei-65" x="150"/>
      <use xlink:href="#SimHei-73" x="200"/>
      <use xlink:href="#SimHei-32" x="250"/>
     </g>
    </g>
    <g id="line2d_14">
     <path d="M 572.584 358.848 
L 582.584 358.848 
L 592.584 358.848 
" style="fill: none; stroke: #2ca02c; stroke-opacity: 0.2; stroke-width: 1.5; stroke-linecap: square"/>
     <g>
      <use xlink:href="#m1685cedb3c" x="582.584" y="358.848" style="fill: #2ca02c; fill-opacity: 0.2; stroke: #2ca02c; stroke-opacity: 0.2"/>
     </g>
    </g>
    <g id="text_11">
     <!-- types3 -->
     <g transform="translate(600.584 362.348)scale(0.12 -0.12)">
      <defs>
       <path id="SimHei-33" d="M 250 1225 
L 700 1300 
Q 800 975 1025 762 
Q 1250 550 1587 562 
Q 1925 575 2125 837 
Q 2325 1100 2300 1437 
Q 2275 1775 2037 1962 
Q 1800 2150 1275 2225 
L 1275 2550 
Q 1800 2600 2037 2825 
Q 2275 3050 2250 3412 
Q 2225 3775 1925 3937 
Q 1625 4100 1287 3975 
Q 950 3850 750 3275 
L 300 3350 
Q 450 3800 712 4100 
Q 975 4400 1425 4450 
Q 1875 4500 2212 4337 
Q 2550 4175 2687 3837 
Q 2825 3500 2725 3100 
Q 2625 2700 2150 2400 
Q 2500 2250 2687 1950 
Q 2875 1650 2812 1162 
Q 2750 675 2375 375 
Q 2000 75 1525 87 
Q 1050 100 700 387 
Q 350 675 250 1225 
z
" transform="scale(0.015625)"/>
      </defs>
      <use xlink:href="#SimHei-74"/>
      <use xlink:href="#SimHei-79" x="50"/>
      <use xlink:href="#SimHei-70" x="100"/>
      <use xlink:href="#SimHei-65" x="150"/>
      <use xlink:href="#SimHei-73" x="200"/>
      <use xlink:href="#SimHei-33" x="250"/>
     </g>
    </g>
   </g>
  </g>
 </g>
 <defs>
  <clipPath id="p831ad4be7b">
   <path d="M 535.32 218.16 
C 535.32 196.319058 531.017811 174.690491 522.659644 154.512092 
C 514.301477 134.333692 502.049878 115.997879 486.606 100.554 
C 471.162121 85.110122 452.826308 72.858523 432.647908 64.500356 
C 412.469509 56.142189 390.840942 51.84 369 51.84 
C 347.159058 51.84 325.530491 56.142189 305.352092 64.500356 
C 285.173692 72.858523 266.837879 85.110122 251.394 100.554 
C 235.950122 115.997879 223.698523 134.333692 215.340356 154.512092 
C 206.982189 174.690491 202.68 196.319058 202.68 218.16 
C 202.68 240.000942 206.982189 261.629509 215.340356 281.807908 
C 223.698523 301.986308 235.950122 320.322121 251.394 335.766 
C 266.837879 351.209878 285.173692 363.461477 305.352092 371.819644 
C 325.530491 380.177811 347.159058 384.48 369 384.48 
C 390.840942 384.48 412.469509 380.177811 432.647908 371.819644 
C 452.826308 363.461477 471.162121 351.209878 486.606 335.766 
C 502.049878 320.322121 514.301477 301.986308 522.659644 281.807908 
C 531.017811 261.629509 535.32 240.000942 535.32 218.16 
M 369 218.16 
C 369 218.16 369 218.16 369 218.16 
C 369 218.16 369 218.16 369 218.16 
C 369 218.16 369 218.16 369 218.16 
C 369 218.16 369 218.16 369 218.16 
C 369 218.16 369 218.16 369 218.16 
C 369 218.16 369 218.16 369 218.16 
C 369 218.16 369 218.16 369 218.16 
C 369 218.16 369 218.16 369 218.16 
C 369 218.16 369 218.16 369 218.16 
C 369 218.16 369 218.16 369 218.16 
C 369 218.16 369 218.16 369 218.16 
C 369 218.16 369 218.16 369 218.16 
C 369 218.16 369 218.16 369 218.16 
C 369 218.16 369 218.16 369 218.16 
C 369 218.16 369 218.16 369 218.16 
C 369 218.16 369 218.16 369 218.16 
M 535.32 218.16 
z
"/>
  </clipPath>
 </defs>
</svg>
